<svg width="64" height="64" viewBox="0 0 24 24" fill="none" xmlns="http://www.w3.org/2000/svg">
<path fill-rule="evenodd" clip-rule="evenodd" d="M5.53249 1.66668L0.171539 11.3333C0.0591623 11.536 0 11.766 0 12C0 12.2341 0.0591623 12.464 0.171539 12.6667L5.53249 22.3333C5.64502 22.5363 5.80695 22.7048 6.00195 22.8219C6.19695 22.9389 6.41814 23.0003 6.64321 23H17.36C17.5851 23.0003 17.8062 22.9389 18.0012 22.8219C18.1962 22.7048 18.3582 22.5363 18.4707 22.3333L23.8285 12.6667C23.9408 12.464 24 12.2341 24 12C24 11.766 23.9408 11.536 23.8285 11.3333L18.4707 1.66668C18.3579 1.4632 18.1955 1.29439 17.9999 1.17732C17.8042 1.06024 17.5824 0.999078 17.3568 1.00001H6.64001C6.41548 1.00025 6.19496 1.06197 6.00057 1.17898C5.80618 1.296 5.64475 1.46419 5.53249 1.66668ZM16.4815 2.50001H17.1137L17.4335 10.5608L9.56383 5.44546L16.4815 2.50001ZM7.43489 2.50001H12.6571L8.33885 4.33866L7.43489 2.50001ZM3.82984 7.82966L6.24523 3.47433L7.05087 5.11299L3.82984 7.82966ZM1.79475 12.5007L1.51705 12L1.79133 11.5054L7.27279 6.88227L7.56824 17.0873L1.79475 12.5007ZM6.32898 20.6767L3.69377 15.925L7.39109 18.8616L6.32898 20.6767ZM12.8133 21.5H7.58297L8.67237 19.6383L12.8133 21.5ZM17.1193 21.5H16.4713L9.89805 18.5447L17.4362 13.4335L17.1193 21.5ZM22.0725 12.7406L18.7266 18.7774L18.9656 12.7318L22.0725 12.7406ZM18.7268 5.22304L22.0625 11.2413L18.9645 11.2309L18.7268 5.22304ZM16.8845 11.9927L8.76564 6.71547L9.07132 17.2901L16.8845 11.9927Z" fill="black"/>
</svg>
